<svg width="36" height="36" viewBox="0 0 36 36" fill="none" xmlns="http://www.w3.org/2000/svg">
<path d="M31.8429 29.4812C33.6907 27.2599 34.9758 24.6265 35.5896 21.804C36.2034 18.9814 36.1278 16.0526 35.3691 13.2655C34.6105 10.4783 33.1912 7.91464 31.2313 5.79144C29.2714 3.66824 26.8285 2.04794 24.1093 1.0676C21.3901 0.0872539 18.4746 -0.224287 15.6094 0.159329C12.7442 0.542946 10.0136 1.61043 7.64867 3.27149C5.28371 4.93254 3.35393 7.1383 2.02258 9.70216C0.691228 12.266 -0.00252514 15.1126 6.90619e-06 18.001C0.000978538 22.1999 1.48188 26.2644 4.18285 29.4812L4.15712 29.5031C4.24718 29.611 4.35011 29.7036 4.44275 29.8103C4.55855 29.9427 4.68335 30.0674 4.80301 30.196C5.16327 30.5868 5.53382 30.9622 5.92238 31.3144C6.04075 31.4224 6.16298 31.5227 6.28264 31.6255C6.69436 31.9804 7.11766 32.3172 7.5564 32.6309C7.61302 32.6694 7.66448 32.7196 7.72109 32.7594V32.744C10.7345 34.8628 14.3294 36 18.0142 36C21.6989 36 25.2938 34.8628 28.3072 32.744V32.7594C28.3638 32.7196 28.414 32.6694 28.4719 32.6309C28.9094 32.3159 29.334 31.9804 29.7457 31.6255C29.8653 31.5227 29.9876 31.4211 30.1059 31.3144C30.4945 30.9609 30.8651 30.5868 31.2253 30.196C31.345 30.0674 31.4685 29.9427 31.5856 29.8103C31.6769 29.7036 31.7811 29.611 31.8712 29.5018L31.8429 29.4812ZM18.0129 7.71637C19.158 7.71637 20.2774 8.05566 21.2295 8.69133C22.1817 9.32701 22.9238 10.2305 23.362 11.2876C23.8002 12.3447 23.9149 13.5079 23.6915 14.6301C23.4681 15.7523 22.9166 16.7831 22.1069 17.5921C21.2972 18.4012 20.2655 18.9522 19.1424 19.1754C18.0193 19.3986 16.8552 19.2841 15.7972 18.8462C14.7392 18.4083 13.835 17.6668 13.1988 16.7155C12.5626 15.7641 12.223 14.6457 12.223 13.5015C12.223 11.9672 12.833 10.4957 13.9188 9.41078C15.0046 8.32587 16.4773 7.71637 18.0129 7.71637ZM7.72881 29.4812C7.75113 27.7932 8.43768 26.1818 9.63992 24.9957C10.8422 23.8096 12.4634 23.1442 14.153 23.1433H21.8728C23.5623 23.1442 25.1836 23.8096 26.3858 24.9957C27.5881 26.1818 28.2746 27.7932 28.2969 29.4812C25.4751 32.0219 21.8113 33.428 18.0129 33.428C14.2144 33.428 10.5506 32.0219 7.72881 29.4812Z" fill="#818181"/>
</svg>
