<svg width="31" height="36" viewBox="0 0 31 36" fill="none" xmlns="http://www.w3.org/2000/svg">
<path d="M3.08211 15.336L1.88931 15.2016L3.08211 15.336ZM1.21491 32.136L2.40771 32.268L1.21491 32.136ZM29.4245 32.136L28.2317 32.268L29.4245 32.136ZM27.5573 15.336L28.7501 15.2016L27.5573 15.336ZM1.88931 15.2016L0.0221131 32.0016L2.40771 32.2656L4.27491 15.4656L1.88931 15.2016V15.2016ZM3.60051 36H27.0389V33.6H3.60051V36ZM30.6173 32.0016L28.7501 15.2016L26.3645 15.4656L28.2317 32.2656L30.6149 32.0016H30.6173ZM25.1693 12H5.47011V14.4H25.1741V12H25.1693ZM28.7501 15.2016C28.6521 14.3212 28.2328 13.5078 27.5726 12.9171C26.9124 12.3264 26.0576 11.9999 25.1717 12V14.4C25.4671 14.4 25.7522 14.5089 25.9723 14.706C26.1924 14.9031 26.332 15.1744 26.3645 15.468L28.7501 15.204V15.2016ZM27.0389 36C27.5451 35.9997 28.0456 35.8927 28.5076 35.6859C28.9697 35.4791 29.3829 35.1772 29.7204 34.7999C30.0579 34.4226 30.312 33.9783 30.4661 33.4961C30.6202 33.014 30.6709 32.5047 30.6149 32.0016L28.2317 32.2656C28.2506 32.4335 28.2339 32.6035 28.1826 32.7645C28.1313 32.9254 28.0465 33.0738 27.9339 33.1997C27.8213 33.3257 27.6834 33.4265 27.5292 33.4954C27.3749 33.5644 27.2079 33.6001 27.0389 33.6V36ZM0.0221131 32.0016C-0.0339303 32.5049 0.0168446 33.0144 0.171121 33.4967C0.325398 33.9791 0.579704 34.4234 0.917426 34.8008C1.25515 35.1782 1.66869 35.48 2.13102 35.6867C2.59336 35.8933 3.0941 36.0001 3.60051 36V33.6C3.43178 33.6 3.26495 33.5644 3.1109 33.4956C2.95684 33.4268 2.81904 33.3262 2.70648 33.2005C2.59392 33.0748 2.50913 32.9268 2.45765 32.7661C2.40617 32.6054 2.38915 32.4357 2.40771 32.268L0.0221131 32.004V32.0016ZM4.27491 15.4656C4.30796 15.1724 4.44786 14.9017 4.66789 14.7051C4.88793 14.5085 5.17266 14.3999 5.46771 14.4V12C4.58224 12.0005 3.728 12.3272 3.0683 12.9179C2.40859 13.5085 1.9897 14.3216 1.89171 15.2016L4.27491 15.4656V15.4656ZM9.31971 9.6V8.4H6.91971V9.6H9.31971ZM21.3197 8.4V9.6H23.7197V8.4H21.3197ZM15.3197 2.4C16.911 2.4 18.4371 3.03214 19.5624 4.15736C20.6876 5.28258 21.3197 6.8087 21.3197 8.4H23.7197C23.7197 6.17218 22.8347 4.03561 21.2594 2.4603C19.6841 0.884997 17.5475 0 15.3197 0V2.4ZM9.31971 8.4C9.31971 6.8087 9.95185 5.28258 11.0771 4.15736C12.2023 3.03214 13.7284 2.4 15.3197 2.4V0C13.0919 0 10.9553 0.884997 9.38002 2.4603C7.80471 4.03561 6.91971 6.17218 6.91971 8.4H9.31971Z" fill="#818181"/>
</svg>
