<svg width="26" height="26" viewBox="0 0 26 26" fill="none" xmlns="http://www.w3.org/2000/svg">
<path d="M13 2.05C15.1661 2.04802 17.2842 2.68855 19.0862 3.89054C20.8883 5.09254 22.2933 6.80201 23.1236 8.80268C23.9539 10.8034 24.1722 13.0054 23.7508 15.1301C23.3294 17.2549 22.2873 19.2069 20.7564 20.7393C19.2254 22.2717 17.2743 23.3155 15.1499 23.7389C13.0256 24.1622 10.8234 23.9459 8.82194 23.1174C6.8205 22.2889 5.10975 20.8855 3.90611 19.0845C2.70247 17.2836 2.06001 15.1661 2.06001 13C2.07314 10.1017 3.22964 7.32561 5.27817 5.27522C7.32669 3.22482 10.1017 2.06578 13 2.05ZM13 0C10.4288 0 7.91543 0.762437 5.77759 2.1909C3.63975 3.61935 1.97351 5.64968 0.989572 8.02512C0.00563288 10.4006 -0.251811 13.0144 0.249797 15.5362C0.751405 18.0579 1.98953 20.3743 3.80762 22.1924C5.6257 24.0105 7.94208 25.2486 10.4638 25.7502C12.9856 26.2518 15.5995 25.9944 17.9749 25.0104C20.3503 24.0265 22.3807 22.3603 23.8091 20.2224C25.2376 18.0846 26 15.5712 26 13C26 9.55219 24.6304 6.24558 22.1924 3.80761C19.7544 1.36964 16.4478 0 13 0Z" fill="#818181"/>
</svg>
